<?xml version="1.0" encoding="UTF-8" standalone="no"?>
<!-- Created with Inkscape (http://www.inkscape.org/) -->

<svg
   width="1280"
   height="640"
   viewBox="0 0 1280 640"
   version="1.1"
   id="svg5"
   xml:space="preserve"
   sodipodi:docname="logo.svg"
   inkscape:version="1.2.1 (9c6d41e410, 2022-07-14, custom)"
   xmlns:inkscape="http://www.inkscape.org/namespaces/inkscape"
   xmlns:sodipodi="http://sodipodi.sourceforge.net/DTD/sodipodi-0.dtd"
   xmlns:xlink="http://www.w3.org/1999/xlink"
   xmlns="http://www.w3.org/2000/svg"
   xmlns:svg="http://www.w3.org/2000/svg"><sodipodi:namedview
     id="namedview141"
     pagecolor="#505050"
     bordercolor="#eeeeee"
     borderopacity="1"
     inkscape:showpageshadow="0"
     inkscape:pageopacity="0"
     inkscape:pagecheckerboard="0"
     inkscape:deskcolor="#505050"
     showgrid="false"
     inkscape:zoom="0.48945048"
     inkscape:cx="666.05309"
     inkscape:cy="358.56539"
     inkscape:window-width="1418"
     inkscape:window-height="1266"
     inkscape:window-x="0"
     inkscape:window-y="0"
     inkscape:window-maximized="1"
     inkscape:current-layer="svg5" /><defs
     id="defs2"><linearGradient
       id="linearGradient898"
       x1="92.441753"
       x2="279.52139"
       y1="128.09245"
       y2="236.44014"
       gradientTransform="scale(0.864261,1.1570579)"
       gradientUnits="userSpaceOnUse"><stop
         offset="-99"
         stop-color="#F33"
         id="stop896" /><stop
         offset="1"
         stop-color="#BF3338"
         id="stop894" /></linearGradient><rect
       x="426.46727"
       y="212.8386"
       width="264.80813"
       height="267.4605"
       id="rect247" /><linearGradient
       id="footer-sample-full-0"
       x1="108.76857"
       x2="213.15365"
       y1="153.94026"
       y2="172.16514"
       gradientTransform="scale(0.864261,1.1570579)"
       gradientUnits="userSpaceOnUse"><stop
         offset="0%"
         stop-color="#FF6533"
         id="stop524" /><stop
         offset="15.7%"
         stop-color="#FF5633"
         id="stop526" /><stop
         offset="43.4%"
         stop-color="#FF4333"
         id="stop528" /><stop
         offset="71.4%"
         stop-color="#FF3733"
         id="stop530" /><stop
         offset="100%"
         stop-color="#F33"
         id="stop532" /></linearGradient><linearGradient
       id="footer-sample-full-1"
       x1="92.441753"
       x2="279.52139"
       y1="128.09245"
       y2="236.44014"
       gradientTransform="scale(0.864261,1.1570579)"
       gradientUnits="userSpaceOnUse"><stop
         offset="0%"
         stop-color="#BF3338"
         id="stop535" /><stop
         offset="100%"
         stop-color="#F33"
         id="stop537" /></linearGradient><linearGradient
       id="footer-sample-full-2"
       x1="103.57503"
       x2="132.06973"
       y1="142.1808"
       y2="162.41261"
       gradientTransform="scale(0.82229824,1.2161038)"
       gradientUnits="userSpaceOnUse"><stop
         offset="0%"
         stop-color="#FF6533"
         id="stop540" /><stop
         offset="15.7%"
         stop-color="#FF5633"
         id="stop542" /><stop
         offset="43.4%"
         stop-color="#FF4333"
         id="stop544" /><stop
         offset="71.4%"
         stop-color="#FF3733"
         id="stop546" /><stop
         offset="100%"
         stop-color="#F33"
         id="stop548" /></linearGradient><linearGradient
       id="footer-sample-full-3"
       x1="139.40614"
       x2="131.73744"
       y1="197.29523"
       y2="104.94606"
       gradientTransform="scale(0.91654477,1.0910542)"
       gradientUnits="userSpaceOnUse"><stop
         offset="0%"
         stop-color="#FF6533"
         id="stop551" /><stop
         offset="15.7%"
         stop-color="#FF5633"
         id="stop553" /><stop
         offset="43.4%"
         stop-color="#FF4333"
         id="stop555" /><stop
         offset="71.4%"
         stop-color="#FF3733"
         id="stop557" /><stop
         offset="100%"
         stop-color="#F33"
         id="stop559" /></linearGradient><linearGradient
       id="footer-sample-full-4"
       x1="110.08213"
       x2="147.73315"
       y1="151.33058"
       y2="171.3397"
       gradientTransform="scale(0.88404398,1.1311654)"
       gradientUnits="userSpaceOnUse"><stop
         offset="0%"
         stop-color="#FBB040"
         id="stop562" /><stop
         offset="100%"
         stop-color="#FB8840"
         id="stop564" /></linearGradient><linearGradient
       id="footer-sample-full-5"
       x1="149.12233"
       x2="110.56712"
       y1="38.078516"
       y2="367.44831"
       gradientTransform="scale(0.88126378,1.134734)"
       gradientUnits="userSpaceOnUse"><stop
         offset="0%"
         stop-color="#FFF"
         id="stop567" /><stop
         offset="100%"
         stop-color="#FFF"
         stop-opacity="0"
         id="stop569" /></linearGradient><linearGradient
       inkscape:collect="always"
       xlink:href="#linearGradient898"
       id="linearGradient892"
       x1="1008.6328"
       y1="295.17319"
       x2="1008.6328"
       y2="497.36102"
       gradientUnits="userSpaceOnUse" /><radialGradient
       inkscape:collect="always"
       xlink:href="#footer-sample-full-4"
       id="radialGradient924"
       cx="433.01038"
       cy="223.16742"
       fx="433.01038"
       fy="223.16742"
       r="5.37599"
       gradientTransform="matrix(0,1.6505815,-1.5716477,0,783.75093,-491.54743)"
       gradientUnits="userSpaceOnUse" /><filter
       style="color-interpolation-filters:sRGB;"
       inkscape:label="Drop Shadow"
       id="filter1024"
       x="-0.18762457"
       y="-0.14356926"
       width="1.3987022"
       height="1.3050847"><feFlood
         flood-opacity="0.498039"
         flood-color="rgb(0,0,0)"
         result="flood"
         id="feFlood1014" /><feComposite
         in="flood"
         in2="SourceGraphic"
         operator="in"
         result="composite1"
         id="feComposite1016" /><feGaussianBlur
         in="composite1"
         stdDeviation="20"
         result="blur"
         id="feGaussianBlur1018" /><feOffset
         dx="6"
         dy="6"
         result="offset"
         id="feOffset1020" /><feComposite
         in="SourceGraphic"
         in2="offset"
         operator="over"
         result="composite2"
         id="feComposite1022" /></filter><filter
       style="color-interpolation-filters:sRGB;"
       inkscape:label="Drop Shadow"
       id="filter1492"
       x="-0.2232147"
       y="-0.23243854"
       width="1.4468797"
       height="1.4669284"><feFlood
         flood-opacity="0.498039"
         flood-color="rgb(0,0,0)"
         result="flood"
         id="feFlood1482" /><feComposite
         in="flood"
         in2="SourceGraphic"
         operator="in"
         result="composite1"
         id="feComposite1484" /><feGaussianBlur
         in="composite1"
         stdDeviation="1"
         result="blur"
         id="feGaussianBlur1486" /><feOffset
         dx="0.00484121"
         dy="0.0211803"
         result="offset"
         id="feOffset1488" /><feComposite
         in="SourceGraphic"
         in2="offset"
         operator="over"
         result="composite2"
         id="feComposite1490" /></filter><filter
       style="color-interpolation-filters:sRGB;"
       inkscape:label="Drop Shadow"
       id="filter1576"
       x="-0.15835761"
       y="-0.19681253"
       width="1.316728"
       height="1.3936946"><feFlood
         flood-opacity="0.498039"
         flood-color="rgb(0,0,0)"
         result="flood"
         id="feFlood1566" /><feComposite
         in="flood"
         in2="SourceGraphic"
         operator="in"
         result="composite1"
         id="feComposite1568" /><feGaussianBlur
         in="composite1"
         stdDeviation="24.966"
         result="blur"
         id="feGaussianBlur1570" /><feOffset
         dx="0.00484121"
         dy="0.0211803"
         result="offset"
         id="feOffset1572" /><feComposite
         in="SourceGraphic"
         in2="offset"
         operator="over"
         result="composite2"
         id="feComposite1574" /></filter><filter
       style="color-interpolation-filters:sRGB;"
       inkscape:label="Drop Shadow"
       id="filter1588"
       x="-0.23421175"
       y="-0.1792175"
       width="1.4684424"
       height="1.3584983"><feFlood
         flood-opacity="0.498039"
         flood-color="rgb(0,0,0)"
         result="flood"
         id="feFlood1578" /><feComposite
         in="flood"
         in2="SourceGraphic"
         operator="in"
         result="composite1"
         id="feComposite1580" /><feGaussianBlur
         in="composite1"
         stdDeviation="24.966"
         result="blur"
         id="feGaussianBlur1582" /><feOffset
         dx="0.00484121"
         dy="0.0211803"
         result="offset"
         id="feOffset1584" /><feComposite
         in="SourceGraphic"
         in2="offset"
         operator="over"
         result="composite2"
         id="feComposite1586" /></filter></defs><g
     id="g928"
     style="filter:url(#filter1576)"><path
       d="m 832.04491,325.04934 c -11.70184,14.7994 -16.86444,32.00799 -15.83191,48.87243 1.03251,16.86441 9.29263,30.63131 22.37117,41.30064 13.76689,10.66933 28.56629,13.76687 45.43071,10.66933 6.53928,-1.03249 13.76691,-4.47423 20.30617,-6.53926 -13.76689,0 -25.46873,-4.47423 -37.17059,-13.76689 -12.73436,-9.29263 -21.33868,-22.37117 -23.4037,-38.2031 -3.09754,-14.7994 0,-28.56628 8.26014,-40.61229 9.29263,-11.70186 21.33867,-18.24114 37.17057,-20.30616 15.83193,-1.03252 29.59881,3.09755 43.36568,12.73437 -3.09754,-4.47423 -7.57179,-7.57181 -11.70186,-11.70188 -13.76687,-9.29263 -28.56627,-13.76687 -46.80737,-9.29263 -16.52028,3.44174 -30.28716,12.04602 -41.98901,26.84544 z m 311.13159,-49.90496 c -33.0406,7.57179 -75.3737,12.73437 -126.3112,12.73437 -51.96998,0 -94.30315,-5.50677 -127.34365,-12.73437 -29.5988,-7.5718 -45.43073,-15.83191 -50.93748,-24.43622 5.50675,37.17059 18.24114,72.27613 35.10555,103.25161 12.73437,19.27365 25.46875,36.13808 38.2031,54.3792 5.50677,10.66935 9.29267,21.33868 11.70186,32.00801 8.26014,11.70184 20.30615,19.27363 35.10555,23.4037 18.2411,6.53926 37.17057,9.29263 56.44427,8.26014 h 2.065 c 19.2736,1.03249 39.5798,-2.06505 58.1651,-8.26014 13.7668,-4.47424 25.4687,-11.70186 34.073,-23.4037 h 1.0325 c 2.065,-10.66933 5.5068,-21.33866 10.6694,-32.00801 12.7343,-18.24112 25.4687,-35.10555 38.2031,-54.3792 16.8644,-30.63131 28.5662,-65.73686 35.1055,-103.25161 -6.8834,9.6368 -22.7154,17.89694 -51.2816,24.43622 z"
       id="path384"
       style="display:inline;fill:url(#linearGradient892);fill-opacity:1;stroke-width:3.44172" /><path
       d="m 966.27202,181.1854 c 0.34416,2.06504 -0.68835,3.78589 -4.13005,5.50677 -4.47426,-2.40921 -14.11107,-3.78591 -22.02701,-3.09758 -8.60432,0.68837 -15.83193,3.44174 -14.79942,9.29267 1.37668,5.85093 9.63682,9.29265 24.43622,7.91594 36.13808,-3.09754 35.79389,-27.53376 88.79634,-32.35217 41.3007,-3.78587 64.3602,8.94848 67.4578,24.43623 2.4092,12.04601 -7.5718,23.74787 -37.5148,26.15706 -26.5012,2.40921 -41.989,-4.8184 -43.3657,-12.04601 -0.6883,-3.7859 1.3767,-9.29265 14.1111,-10.66933 1.3767,5.85093 8.6043,12.04601 25.8129,10.32515 12.3902,-1.03252 22.7154,-5.50675 21.3387,-12.39021 -1.3767,-7.22759 -14.4553,-11.35766 -35.1056,-9.6368 -20.2059,1.82184 -33.0794,8.10694 -44.9871,14.48295 -12.83709,6.8737 -24.55178,13.85306 -43.12094,15.46001 -25.46871,2.40921 -46.11904,-6.88342 -48.87243,-20.65031 -1.03251,-5.16258 -1.03251,-17.2086 25.81293,-19.61781 13.76687,-1.03252 24.78036,1.37669 26.15706,6.88344 z m 50.24908,64.36016 c -44.39817,0 -83.97795,-4.47422 -112.54422,-10.66931 -30.63131,-7.57179 -46.80742,-15.83193 -46.80742,-26.50126 0,-4.47422 2.06504,-8.26012 8.26014,-12.73434 -19.27362,7.57176 -29.59878,13.76687 -29.59878,23.40367 1.03249,10.66935 18.2411,21.33868 53.34665,29.59882 33.04052,8.26012 83.994,12.73435 126.31113,12.73435 42.3172,0 93.2125,-4.71043 126.3112,-12.73435 35.049,-8.49673 51.97,-19.27366 51.97,-29.59882 0,-7.57179 -7.5718,-14.7994 -21.3387,-20.30613 3.0975,2.06501 5.5067,5.50673 5.5067,9.29263 0,10.66933 -15.8159,19.34506 -47.8399,26.50125 -29.5829,6.61072 -67.4577,11.01349 -113.5768,11.01349 z"
       id="path5122"
       style="display:inline;fill:#fbb040;fill-opacity:1;stroke-width:3.44172" /></g><g
     aria-label="+"
     transform="matrix(23.344033,0,0,23.344033,-9527.6226,-4892.0193)"
     id="text245"
     style="font-size:21.3333px;font-family:'URW Bookman';-inkscape-font-specification:'URW Bookman';text-align:justify;white-space:pre;shape-inside:url(#rect247);fill:#fbb040;fill-opacity:1;filter:url(#filter1492)"><path
       d="m 438.30678,222.43788 h -4.54399 v -4.33066 h -1.664 v 4.33066 h -4.54399 v 1.66399 h 4.54399 v 4.33066 h 1.664 v -4.33066 h 4.54399 z"
       id="path409"
       style="fill:url(#radialGradient924);fill-opacity:1" /></g><g
     id="g622"
     transform="translate(85.371924,152.77429)"
     style="filter:url(#filter1588)"><path
       fill="url(#footer-sample-full-0)"
       d="m 256,110.133 c 0,-19.684 -5.155,-38.137 -14.235,-54.13 -24.077,-24.78 -76.449,-30.52 -89.454,-0.117 -13.356,31.166 22.437,65.846 38.078,63.092 19.918,-3.514 -3.515,-49.208 -3.515,-49.208 30.462,57.41 23.433,39.835 -31.634,92.559 -55.066,52.723 -111.304,163.968 -119.505,168.655 -0.352,0.234 -0.703,0.41 -1.113,0.586 H 250.61 c 3.807,0 6.268,-4.042 4.569,-7.44 L 198.707,212.357 c -1.23,-2.402 -0.352,-5.39 1.991,-6.737 C 233.74,186.64 256,151.022 256,110.133 Z"
       id="path574"
       style="fill:url(#footer-sample-full-0)" /><path
       fill="url(#footer-sample-full-1)"
       d="m 256,110.133 c 0,-19.684 -5.155,-38.137 -14.235,-54.13 -24.077,-24.78 -76.449,-30.52 -89.454,-0.117 -13.356,31.166 22.437,65.846 38.078,63.092 19.918,-3.514 -3.515,-49.208 -3.515,-49.208 30.462,57.41 23.433,39.835 -31.634,92.559 -55.066,52.723 -111.304,163.968 -119.505,168.655 -0.352,0.234 -0.703,0.41 -1.113,0.586 H 250.61 c 3.807,0 6.268,-4.042 4.569,-7.44 L 198.707,212.357 c -1.23,-2.402 -0.352,-5.39 1.991,-6.737 C 233.74,186.64 256,151.022 256,110.133 Z"
       id="path576"
       style="fill:url(#footer-sample-full-1)" /><path
       fill="url(#footer-sample-full-2)"
       d="m 35.735,330.984 c 8.2,-4.687 64.439,-115.99 119.505,-168.714 55.067,-52.723 62.096,-35.149 31.634,-92.558 0,0 -116.577,163.441 -158.755,244.283"
       id="path578"
       style="fill:url(#footer-sample-full-2)" /><path
       fill="url(#footer-sample-full-3)"
       d="M 52.137,184.53 C 130.87,39.778 141.181,25.19 182.187,25.19 c 21.559,0 43.292,9.724 57.352,27.006 C 220.383,21.324 186.464,0.644 147.625,0.059 H 13.884 A 5.1,5.1 0 0 0 8.787,5.155 v 269.591 c 7.967,-20.562 21.5,-49.97 43.35,-90.215 z"
       id="path580"
       style="fill:url(#footer-sample-full-3)" /><path
       fill="url(#footer-sample-full-4)"
       d="M 155.24,162.27 C 100.174,214.993 43.936,326.297 35.735,330.984 27.533,335.67 13.767,336.256 6.444,328.054 -1.347,319.326 -13.474,305.208 52.137,184.531 130.87,39.777 141.181,25.19 182.187,25.19 c 21.559,0 43.292,9.724 57.352,27.006 0.761,1.23 1.523,2.519 2.284,3.808 -24.077,-24.78 -76.448,-30.521 -89.453,-0.118 -13.357,31.166 22.436,65.846 38.078,63.092 19.917,-3.514 -3.515,-49.208 -3.515,-49.208 30.403,57.351 23.374,39.777 -31.693,92.5 z"
       id="path582"
       style="fill:url(#footer-sample-full-4)" /><path
       fill="url(#footer-sample-full-5)"
       d="M 58.581,190.975 C 137.314,46.22 147.625,31.634 188.631,31.634 c 17.75,0 35.618,6.62 49.209,18.57 C 223.78,34.153 202.925,25.19 182.188,25.19 141.181,25.19 130.87,39.777 52.138,184.53 -13.475,305.209 -1.348,319.327 6.443,328.056 c 1.113,1.23 2.402,2.285 3.75,3.163 C 3.338,321.26 0.292,298.12 58.58,190.975 Z"
       opacity="0.3"
       id="path584"
       style="fill:url(#footer-sample-full-5)" /></g></svg>
